<mxfile host="app.diagrams.net" agent="Mozilla/5.0 (Windows NT 10.0; Win64; x64) AppleWebKit/537.36 (KHTML, like Gecko) Chrome/127.0.0.0 Safari/537.36" version="24.7.6">
  <diagram name="Halaman-1" id="NB6VaOkHnZa1Gu3yGPGT">
    <mxGraphModel dx="880" dy="468" grid="1" gridSize="10" guides="1" tooltips="1" connect="1" arrows="1" fold="1" page="1" pageScale="1" pageWidth="827" pageHeight="1169" math="0" shadow="0">
      <root>
        <mxCell id="0" />
        <mxCell id="1" parent="0" />
        <mxCell id="EA0jJWRdp2QFXryNx3G9-1" value="User&lt;div&gt;&lt;br&gt;&lt;/div&gt;" style="shape=umlActor;verticalLabelPosition=bottom;verticalAlign=top;html=1;outlineConnect=0;" vertex="1" parent="1">
          <mxGeometry x="60" y="180" width="90" height="160" as="geometry" />
        </mxCell>
        <mxCell id="EA0jJWRdp2QFXryNx3G9-3" value="" style="rounded=0;whiteSpace=wrap;html=1;" vertex="1" parent="1">
          <mxGeometry x="190" y="130" width="180" height="250" as="geometry" />
        </mxCell>
        <mxCell id="EA0jJWRdp2QFXryNx3G9-4" value="halaman depan" style="ellipse;whiteSpace=wrap;html=1;" vertex="1" parent="1">
          <mxGeometry x="227.5" y="150" width="105" height="50" as="geometry" />
        </mxCell>
        <mxCell id="EA0jJWRdp2QFXryNx3G9-5" value="kategori" style="ellipse;whiteSpace=wrap;html=1;" vertex="1" parent="1">
          <mxGeometry x="225" y="220" width="110" height="50" as="geometry" />
        </mxCell>
        <mxCell id="EA0jJWRdp2QFXryNx3G9-6" value="detail" style="ellipse;whiteSpace=wrap;html=1;" vertex="1" parent="1">
          <mxGeometry x="227.5" y="290" width="110" height="50" as="geometry" />
        </mxCell>
        <mxCell id="EA0jJWRdp2QFXryNx3G9-7" value="" style="endArrow=none;html=1;rounded=0;entryX=0;entryY=0.5;entryDx=0;entryDy=0;exitX=1;exitY=0.3333333333333333;exitDx=0;exitDy=0;exitPerimeter=0;" edge="1" parent="1" source="EA0jJWRdp2QFXryNx3G9-1" target="EA0jJWRdp2QFXryNx3G9-4">
          <mxGeometry width="50" height="50" relative="1" as="geometry">
            <mxPoint x="150" y="230" as="sourcePoint" />
            <mxPoint x="200" y="180" as="targetPoint" />
            <Array as="points" />
          </mxGeometry>
        </mxCell>
        <mxCell id="EA0jJWRdp2QFXryNx3G9-8" value="" style="endArrow=none;html=1;rounded=0;entryX=0;entryY=0.5;entryDx=0;entryDy=0;exitX=1;exitY=0.3333333333333333;exitDx=0;exitDy=0;exitPerimeter=0;" edge="1" parent="1" source="EA0jJWRdp2QFXryNx3G9-1" target="EA0jJWRdp2QFXryNx3G9-5">
          <mxGeometry width="50" height="50" relative="1" as="geometry">
            <mxPoint x="130" y="285" as="sourcePoint" />
            <mxPoint x="180" y="235" as="targetPoint" />
          </mxGeometry>
        </mxCell>
        <mxCell id="EA0jJWRdp2QFXryNx3G9-9" value="" style="endArrow=none;html=1;rounded=0;entryX=0;entryY=0.5;entryDx=0;entryDy=0;exitX=1;exitY=0.3333333333333333;exitDx=0;exitDy=0;exitPerimeter=0;" edge="1" parent="1" source="EA0jJWRdp2QFXryNx3G9-1" target="EA0jJWRdp2QFXryNx3G9-6">
          <mxGeometry width="50" height="50" relative="1" as="geometry">
            <mxPoint x="140" y="300" as="sourcePoint" />
            <mxPoint x="190" y="250" as="targetPoint" />
          </mxGeometry>
        </mxCell>
      </root>
    </mxGraphModel>
  </diagram>
</mxfile>
